<svg width="22" height="23" viewBox="0 0 22 23" fill="none" xmlns="http://www.w3.org/2000/svg">
<path d="M11 0.456665C4.92507 0.456665 0 5.35305 0 11.3931C0 17.4331 4.92507 22.3295 11 22.3295C17.0749 22.3295 22 17.4331 22 11.3931C22 5.35305 17.0749 0.456665 11 0.456665ZM16.5798 12.5759C17.0925 13.0738 17.6349 13.5423 18.0951 14.0917C18.299 14.3347 18.4913 14.586 18.6375 14.8686C18.8464 15.2716 18.6578 15.7135 18.295 15.7374L16.0414 15.737C15.4594 15.7849 14.9962 15.5515 14.6058 15.1559C14.294 14.8406 14.0048 14.5038 13.7046 14.1778C13.5819 14.044 13.4527 13.918 13.2988 13.8189C12.9916 13.6202 12.7247 13.6811 12.5487 14.0001C12.3693 14.3248 12.3283 14.6846 12.3112 15.046C12.2867 15.5743 12.1264 15.7124 11.5933 15.7372C10.454 15.7902 9.37301 15.6184 8.36833 15.0474C7.48203 14.5437 6.79603 13.8328 6.19826 13.0279C5.03423 11.4589 4.14275 9.73679 3.34175 7.96526C3.16147 7.56629 3.29336 7.35282 3.73606 7.34454C4.47157 7.33044 5.20708 7.33223 5.94259 7.34387C6.24192 7.34857 6.43998 7.51885 6.55499 7.79967C6.95245 8.77192 7.43971 9.69696 8.05031 10.5549C8.21303 10.7833 8.37913 11.0111 8.61567 11.1725C8.87675 11.3506 9.0757 11.2917 9.19881 11.0019C9.27759 10.8178 9.31157 10.6209 9.32868 10.4235C9.38719 9.74753 9.39417 9.07176 9.29289 8.39846C9.22987 7.97712 8.99153 7.70502 8.56908 7.62536C8.35392 7.58486 8.38543 7.50565 8.49009 7.38347C8.67171 7.17224 8.84186 7.04156 9.18193 7.04156L11.7281 7.04112C12.1294 7.11943 12.2194 7.29844 12.2739 7.70032L12.2761 10.5135C12.2714 10.669 12.3547 11.1299 12.6355 11.2317C12.8606 11.3056 13.0091 11.1261 13.1437 10.9845C13.7543 10.3403 14.1894 9.57993 14.579 8.79296C14.7509 8.4459 14.8992 8.08676 15.0433 7.72695C15.1504 7.4609 15.317 7.32999 15.619 7.33447L18.0708 7.33738C18.1431 7.33738 18.2164 7.33805 18.288 7.35036C18.7012 7.42062 18.8144 7.59739 18.6866 7.99815C18.4854 8.62782 18.0945 9.15232 17.7123 9.67816C17.3027 10.2411 16.8658 10.7844 16.4603 11.3499C16.0876 11.8668 16.1171 12.127 16.5798 12.5759Z"/>
</svg>
