<svg width="22" height="23" viewBox="0 0 22 23"  xmlns="http://www.w3.org/2000/svg">
<path d="M11 0.456665C4.92485 0.456665 0 5.35305 0 11.3931C0 17.4331 4.92485 22.3295 11 22.3295C17.0752 22.3295 22 17.4331 22 11.3931C22 5.35305 17.0752 0.456665 11 0.456665ZM15.1965 6.02613L13.6751 6.0268C12.482 6.0268 12.2514 6.59046 12.2514 7.41748V9.24115H15.0964L15.095 12.0975H12.2516V19.4275H9.28411V12.0975H6.80346V9.24115H9.28411V7.13465C9.28411 4.69004 10.7864 3.35865 12.9797 3.35865L15.1968 3.362V6.02613H15.1965Z"/>
</svg>
