<svg xmlns="http://www.w3.org/2000/svg" xmlns:xlink="http://www.w3.org/1999/xlink"><symbol id="icon-fb" viewBox="0 0 22 23">
<path d="M11 0.456665C4.92485 0.456665 0 5.35305 0 11.3931C0 17.4331 4.92485 22.3295 11 22.3295C17.0752 22.3295 22 17.4331 22 11.3931C22 5.35305 17.0752 0.456665 11 0.456665ZM15.1965 6.02613L13.6751 6.0268C12.482 6.0268 12.2514 6.59046 12.2514 7.41748V9.24115H15.0964L15.095 12.0975H12.2516V19.4275H9.28411V12.0975H6.80346V9.24115H9.28411V7.13465C9.28411 4.69004 10.7864 3.35865 12.9797 3.35865L15.1968 3.362V6.02613H15.1965Z"/>
</symbol><symbol id="icon-instagram" viewBox="0 0 22 23">
<path d="M11 0.456665C4.92485 0.456665 0 5.35305 0 11.3931C0 17.4331 4.92485 22.3295 11 22.3295C17.0752 22.3295 22 17.4331 22 11.3931C22 5.35305 17.0752 0.456665 11 0.456665ZM17.025 19.4521H4.97526C3.83036 19.4521 2.89432 18.6097 2.89432 17.3837V5.40295C2.89432 4.1765 3.83036 3.33426 4.97526 3.33426H17.025C18.1696 3.33426 19.1059 4.1765 19.1059 5.40295V17.3837C19.1059 18.6097 18.1694 19.4521 17.025 19.4521Z"/>
</symbol><symbol id="icon-mail" viewBox="0 0 16 12">
<path d="M14.4 0H1.6C0.72 0 0.00799999 0.675 0.00799999 1.5L0 10.5C0 11.325 0.72 12 1.6 12H14.4C15.28 12 16 11.325 16 10.5V1.5C16 0.675 15.28 0 14.4 0ZM14.4 3L8 6.75L1.6 3V1.5L8 5.25L14.4 1.5V3Z"/>
</symbol><symbol id="icon-phone" viewBox="0 0 12 13">
<path d="M11.34 8.94111C10.52 8.94111 9.72667 8.79667 8.98667 8.53667C8.75333 8.45 8.49333 8.515 8.31333 8.71L7.26667 10.1328C5.38 9.15778 3.61333 7.31611 2.67333 5.2L3.97333 4.00111C4.15333 3.79889 4.20667 3.51722 4.13333 3.26444C3.88667 2.46278 3.76 1.60333 3.76 0.715C3.76 0.325 3.46 0 3.1 0H0.793333C0.433333 0 0 0.173333 0 0.715C0 7.42444 5.15333 13 11.34 13C11.8133 13 12 12.545 12 12.1478V9.65611C12 9.26611 11.7 8.94111 11.34 8.94111Z"/>
</symbol><symbol id="icon-tg" viewBox="0 0 12 12">
<path d="M12 0L0 5.02V5.67333L4.56 7.44L6.32 12H6.97333L12 0Z"/>
</symbol><symbol id="icon-twitter" viewBox="0 0 22 23">
<path d="M11 0.456665C4.92485 0.456665 0 5.35305 0 11.3931C0 17.4331 4.92485 22.3295 11 22.3295C17.0752 22.3295 22 17.4331 22 11.3931C22 5.35305 17.0752 0.456665 11 0.456665ZM17.6518 8.47655C17.6569 8.60567 17.6596 8.735 17.6596 8.86501C17.6596 13.5367 14.0841 18.3689 8.1005 18.3689C6.27141 18.3689 4.49048 17.85 2.95036 16.8679C2.91818 16.8475 2.9049 16.8079 2.91773 16.7723C2.93056 16.737 2.96679 16.7151 3.00393 16.7193C3.2623 16.75 3.52653 16.7652 3.78873 16.7652C5.21181 16.7652 6.55904 16.3277 7.69854 15.4978C6.33262 15.3832 5.15869 14.4642 4.73647 13.1532C4.72769 13.1259 4.73399 13.0961 4.7529 13.0747C4.77203 13.0532 4.80129 13.0438 4.8292 13.0489C5.20775 13.1203 5.59261 13.125 5.96352 13.065C4.55484 12.6298 3.56479 11.3179 3.56479 9.82428L3.56524 9.78087C3.56591 9.75245 3.58144 9.72649 3.6062 9.7124C3.63073 9.69808 3.66134 9.69785 3.6861 9.71173C4.0534 9.91446 4.45987 10.0447 4.87691 10.0946C4.06736 9.45306 3.59202 8.48058 3.59202 7.44031C3.59202 6.84018 3.75182 6.25034 4.0543 5.73456C4.06781 5.71152 4.09166 5.69675 4.11822 5.69473C4.145 5.69205 4.17089 5.70368 4.18776 5.72427C5.84469 7.74485 8.2819 8.98897 10.8881 9.14896C10.8447 8.93147 10.8226 8.70725 10.8226 8.48103C10.8226 6.61015 12.3535 5.08834 14.2351 5.08834C15.1601 5.08834 16.054 5.46627 16.6948 6.12682C17.417 5.98048 18.105 5.71644 18.7406 5.34186C18.7697 5.32463 18.8061 5.32731 18.8329 5.34812C18.859 5.36916 18.8698 5.40407 18.8595 5.43629C18.6441 6.10601 18.2241 6.69025 17.6599 7.11205C18.1912 7.02008 18.7069 6.86479 19.1973 6.64841C19.2301 6.63342 19.2691 6.64282 19.2927 6.67034C19.3161 6.69809 19.3181 6.73769 19.2979 6.76768C18.8511 7.43248 18.2975 8.00732 17.6518 8.47655Z"/>
</symbol><symbol id="icon-vk" viewBox="0 0 22 23">
<path d="M11 0.456665C4.92507 0.456665 0 5.35305 0 11.3931C0 17.4331 4.92507 22.3295 11 22.3295C17.0749 22.3295 22 17.4331 22 11.3931C22 5.35305 17.0749 0.456665 11 0.456665ZM16.5798 12.5759C17.0925 13.0738 17.6349 13.5423 18.0951 14.0917C18.299 14.3347 18.4913 14.586 18.6375 14.8686C18.8464 15.2716 18.6578 15.7135 18.295 15.7374L16.0414 15.737C15.4594 15.7849 14.9962 15.5515 14.6058 15.1559C14.294 14.8406 14.0048 14.5038 13.7046 14.1778C13.5819 14.044 13.4527 13.918 13.2988 13.8189C12.9916 13.6202 12.7247 13.6811 12.5487 14.0001C12.3693 14.3248 12.3283 14.6846 12.3112 15.046C12.2867 15.5743 12.1264 15.7124 11.5933 15.7372C10.454 15.7902 9.37301 15.6184 8.36833 15.0474C7.48203 14.5437 6.79603 13.8328 6.19826 13.0279C5.03423 11.4589 4.14275 9.73679 3.34175 7.96526C3.16147 7.56629 3.29336 7.35282 3.73606 7.34454C4.47157 7.33044 5.20708 7.33223 5.94259 7.34387C6.24192 7.34857 6.43998 7.51885 6.55499 7.79967C6.95245 8.77192 7.43971 9.69696 8.05031 10.5549C8.21303 10.7833 8.37913 11.0111 8.61567 11.1725C8.87675 11.3506 9.0757 11.2917 9.19881 11.0019C9.27759 10.8178 9.31157 10.6209 9.32868 10.4235C9.38719 9.74753 9.39417 9.07176 9.29289 8.39846C9.22987 7.97712 8.99153 7.70502 8.56908 7.62536C8.35392 7.58486 8.38543 7.50565 8.49009 7.38347C8.67171 7.17224 8.84186 7.04156 9.18193 7.04156L11.7281 7.04112C12.1294 7.11943 12.2194 7.29844 12.2739 7.70032L12.2761 10.5135C12.2714 10.669 12.3547 11.1299 12.6355 11.2317C12.8606 11.3056 13.0091 11.1261 13.1437 10.9845C13.7543 10.3403 14.1894 9.57993 14.579 8.79296C14.7509 8.4459 14.8992 8.08676 15.0433 7.72695C15.1504 7.4609 15.317 7.32999 15.619 7.33447L18.0708 7.33738C18.1431 7.33738 18.2164 7.33805 18.288 7.35036C18.7012 7.42062 18.8144 7.59739 18.6866 7.99815C18.4854 8.62782 18.0945 9.15232 17.7123 9.67816C17.3027 10.2411 16.8658 10.7844 16.4603 11.3499C16.0876 11.8668 16.1171 12.127 16.5798 12.5759Z"/>
</symbol></svg>