<svg width="52" height="11" viewBox="0 0 52 11" fill="none" xmlns="http://www.w3.org/2000/svg">
<mask id="mask0" mask-type="alpha" maskUnits="userSpaceOnUse" x="0" y="0" width="52" height="11">
<path d="M0 0H52V11H0V0Z" fill="white"/>
</mask>
<g mask="url(#mask0)">
<path fill-rule="evenodd" clip-rule="evenodd" d="M49.9434 10.8539H52.0001V0H49.9434V10.8539Z" fill="#404042"/>
<path fill-rule="evenodd" clip-rule="evenodd" d="M14.2257 5.8146H11.1852C11.2641 5.1101 11.4167 4.36675 12.6859 4.36675C14.1545 4.36675 14.1888 5.06509 14.2219 5.74035C14.2232 5.76524 14.2243 5.79013 14.2257 5.8146ZM12.7575 2.66675H12.6572C11.8216 2.66675 10.6678 2.84388 9.91723 3.68714C9.26923 4.40119 8.89771 5.4697 8.89771 6.61911V6.91267C8.89771 7.10417 8.92412 8.1098 9.44784 9.0821C9.99142 10.0915 10.8882 10.6927 12.0412 10.8207C12.2394 10.8429 12.4529 10.8541 12.6755 10.8541C14.0583 10.8541 15.4196 10.4361 15.4769 10.4181L15.5722 10.3884V8.84496C15.5722 8.84496 13.7773 9.04535 13.1845 9.06418C11.3731 9.12235 11.1601 8.20783 11.1382 7.48839H16.2207V6.10995C16.2207 4.97649 15.9287 4.13697 15.329 3.5439C14.6071 2.81883 13.5322 2.66675 12.7575 2.66675Z" fill="#404042"/>
<path fill-rule="evenodd" clip-rule="evenodd" d="M26.0844 5.82477H23.044C23.1228 5.12027 23.2756 4.37689 24.5446 4.37689C26.0134 4.37689 26.0476 5.07522 26.0807 5.75048C26.0819 5.77537 26.0831 5.80025 26.0844 5.82477ZM24.6163 2.67682H24.5161C23.6805 2.67682 22.5267 2.85395 21.7761 3.69722C21.128 4.41126 20.7563 5.47979 20.7563 6.6292V6.92271C20.7563 7.11425 20.7829 8.11988 21.3065 9.09219C21.8503 10.1016 22.747 10.7028 23.8998 10.8308C24.0981 10.8529 24.3117 10.8642 24.5343 10.8642C25.9171 10.8642 27.2784 10.4461 27.3358 10.4282L27.4311 10.3985V8.85505C27.4311 8.85505 25.6361 9.05538 25.0432 9.07427C23.2319 9.13238 23.019 8.21792 22.9969 7.49847H28.0794V6.12003C28.0794 4.98653 27.7875 4.14704 27.188 3.55397C26.4659 2.8289 25.3909 2.67682 24.6163 2.67682Z" fill="#404042"/>
<path fill-rule="evenodd" clip-rule="evenodd" d="M46.5928 5.82477H43.5522C43.6309 5.12027 43.7837 4.37689 45.0528 4.37689C46.5213 4.37689 46.5557 5.07522 46.5891 5.75048C46.5901 5.77537 46.5914 5.80025 46.5928 5.82477ZM45.1245 2.67682H45.0243C44.1887 2.67682 43.0349 2.85395 42.2844 3.69722C41.6364 4.41126 41.2646 5.47979 41.2646 6.6292V6.92271C41.2646 7.11425 41.2913 8.11988 41.815 9.09219C42.3587 10.1016 43.2554 10.7028 44.4081 10.8308C44.6064 10.8529 44.8199 10.8642 45.0425 10.8642C46.4253 10.8642 47.7865 10.4461 47.8441 10.4282L47.9393 10.3985V8.85505C47.9393 8.85505 46.1443 9.05538 45.5514 9.07427C43.7403 9.13238 43.5272 8.21792 43.5052 7.49847H48.5879V6.12003C48.5879 4.98653 48.2958 4.14704 47.696 3.55397C46.974 2.8289 45.8991 2.67682 45.1245 2.67682Z" fill="#404042"/>
<path fill-rule="evenodd" clip-rule="evenodd" d="M17.5764 10.8642H19.6333V0H17.5764V10.8642Z" fill="#404042"/>
<path fill-rule="evenodd" clip-rule="evenodd" d="M2.77512 6.06444C3.2948 6.26519 4.7119 6.81445 5.02311 6.94403C5.23255 7.03111 5.38864 7.16531 5.48725 7.3431L5.52607 7.41308H7.74758L7.72883 7.25441C7.52626 5.52901 6.3882 5.09754 5.28747 4.68027C4.91809 4.54036 4.25921 4.30758 3.77809 4.13768C3.51142 4.0434 3.30072 3.96902 3.24592 3.94806C2.6095 3.70337 2.08816 3.44675 2.1553 2.78135C2.21213 2.21778 2.66591 1.98639 3.72116 1.98256C4.78771 1.98489 6.94274 2.17159 6.96443 2.17345L7.10951 2.1862V0.436787L7.00849 0.409547C6.99377 0.405713 4.95662 0.00821576 3.69331 0.000146058L3.64113 0C2.72308 0 1.9616 0.163402 1.37754 0.485751C0.463389 0.990238 0 1.8637 0 3.08139C0 4.42045 0.829906 5.3125 2.77512 6.06444Z" fill="#C02C25"/>
<path fill-rule="evenodd" clip-rule="evenodd" d="M5.50957 8.35793C5.26336 8.89042 4.57637 8.94097 3.88402 8.94097H3.80077C2.69593 8.94097 0.320604 8.68889 0.296803 8.68628L0.148926 8.67051V10.534L0.250443 10.5602C0.267433 10.5647 2.24843 10.9999 3.69738 10.9999C6.13631 10.9999 7.52782 10.0869 7.73238 8.35793H5.50957Z" fill="#404042"/>
<path fill-rule="evenodd" clip-rule="evenodd" d="M38.591 4.47036H40.4199V2.74655H38.591V0H36.5066V7.42165H38.591V4.47036Z" fill="#C02C25"/>
<path fill-rule="evenodd" clip-rule="evenodd" d="M39.5514 9.04209C38.9032 9.04209 38.6199 8.84395 38.5932 8.36412H36.5071C36.5246 10.0471 37.6298 10.7458 38.6655 10.8371C38.7407 10.8437 38.8246 10.847 38.9146 10.847C39.5511 10.847 40.4867 10.6549 40.4867 10.6549V8.98296C40.4867 8.98296 39.7398 9.04209 39.5514 9.04209Z" fill="#404042"/>
<path fill-rule="evenodd" clip-rule="evenodd" d="M33.1176 2.71354C32.7795 2.71354 32.4706 2.73041 32.1992 2.76361C31.0778 2.9005 30.2148 3.52585 29.7038 4.57144C29.2382 5.52495 29.2019 6.50698 29.2019 6.78519C29.2019 7.06197 29.2382 8.03873 29.7051 8.99004C30.216 10.0308 31.0781 10.659 32.198 10.807C32.435 10.8382 32.7161 10.854 33.0337 10.854C34.0049 10.854 35.0312 10.7053 35.0413 10.7038L35.1564 10.6869V8.95402C35.1564 8.95402 34.0318 9.03207 33.4666 9.03207C32.7646 9.03207 32.4615 8.98606 32.3309 8.94728C31.5395 8.71284 31.46 7.48355 31.4627 6.96646C31.4632 6.90463 31.4632 6.66579 31.4627 6.6046C31.46 6.07482 31.5388 4.82128 32.3255 4.6247C32.5554 4.56728 32.9624 4.53693 33.5019 4.53693C34.0652 4.53693 35.1564 4.61645 35.1564 4.61645V2.87549L35.0423 2.85774C35.0332 2.85642 34.1001 2.71354 33.1176 2.71354Z" fill="#404042"/>
</g>
</svg>
