<svg width="22" height="23" viewBox="0 0 22 23" fill="none" xmlns="http://www.w3.org/2000/svg">
<path d="M11 0.456665C4.92485 0.456665 0 5.35305 0 11.3931C0 17.4331 4.92485 22.3295 11 22.3295C17.0752 22.3295 22 17.4331 22 11.3931C22 5.35305 17.0752 0.456665 11 0.456665ZM17.6518 8.47655C17.6569 8.60567 17.6596 8.735 17.6596 8.86501C17.6596 13.5367 14.0841 18.3689 8.1005 18.3689C6.27141 18.3689 4.49048 17.85 2.95036 16.8679C2.91818 16.8475 2.9049 16.8079 2.91773 16.7723C2.93056 16.737 2.96679 16.7151 3.00393 16.7193C3.2623 16.75 3.52653 16.7652 3.78873 16.7652C5.21181 16.7652 6.55904 16.3277 7.69854 15.4978C6.33262 15.3832 5.15869 14.4642 4.73647 13.1532C4.72769 13.1259 4.73399 13.0961 4.7529 13.0747C4.77203 13.0532 4.80129 13.0438 4.8292 13.0489C5.20775 13.1203 5.59261 13.125 5.96352 13.065C4.55484 12.6298 3.56479 11.3179 3.56479 9.82428L3.56524 9.78087C3.56591 9.75245 3.58144 9.72649 3.6062 9.7124C3.63073 9.69808 3.66134 9.69785 3.6861 9.71173C4.0534 9.91446 4.45987 10.0447 4.87691 10.0946C4.06736 9.45306 3.59202 8.48058 3.59202 7.44031C3.59202 6.84018 3.75182 6.25034 4.0543 5.73456C4.06781 5.71152 4.09166 5.69675 4.11822 5.69473C4.145 5.69205 4.17089 5.70368 4.18776 5.72427C5.84469 7.74485 8.2819 8.98897 10.8881 9.14896C10.8447 8.93147 10.8226 8.70725 10.8226 8.48103C10.8226 6.61015 12.3535 5.08834 14.2351 5.08834C15.1601 5.08834 16.054 5.46627 16.6948 6.12682C17.417 5.98048 18.105 5.71644 18.7406 5.34186C18.7697 5.32463 18.8061 5.32731 18.8329 5.34812C18.859 5.36916 18.8698 5.40407 18.8595 5.43629C18.6441 6.10601 18.2241 6.69025 17.6599 7.11205C18.1912 7.02008 18.7069 6.86479 19.1973 6.64841C19.2301 6.63342 19.2691 6.64282 19.2927 6.67034C19.3161 6.69809 19.3181 6.73769 19.2979 6.76768C18.8511 7.43248 18.2975 8.00732 17.6518 8.47655Z" />
</svg>
