<svg width="12" height="13" viewBox="0 0 12 13" fill="none" xmlns="http://www.w3.org/2000/svg">
<path d="M11.34 8.94111C10.52 8.94111 9.72667 8.79667 8.98667 8.53667C8.75333 8.45 8.49333 8.515 8.31333 8.71L7.26667 10.1328C5.38 9.15778 3.61333 7.31611 2.67333 5.2L3.97333 4.00111C4.15333 3.79889 4.20667 3.51722 4.13333 3.26444C3.88667 2.46278 3.76 1.60333 3.76 0.715C3.76 0.325 3.46 0 3.1 0H0.793333C0.433333 0 0 0.173333 0 0.715C0 7.42444 5.15333 13 11.34 13C11.8133 13 12 12.545 12 12.1478V9.65611C12 9.26611 11.7 8.94111 11.34 8.94111Z" />
</svg>
