<svg width="22" height="23" viewBox="0 0 22 23" fill="none" xmlns="http://www.w3.org/2000/svg">
<path d="M11.0156 14.4945C12.8135 14.4945 14.2711 13.0903 14.2711 11.358C14.2711 9.62581 12.8135 8.22156 11.0156 8.22156C9.21757 8.22156 7.76001 9.62581 7.76001 11.358C7.76001 13.0903 9.21757 14.4945 11.0156 14.4945Z" fill="#8391B2"/>
<path d="M16.0545 11.5331C16.0545 14.214 13.7985 16.387 11.0156 16.387C8.23266 16.387 5.97662 14.214 5.97662 11.5331C5.97662 11.0527 6.04954 10.5886 6.18458 10.1503H4.69556V16.9587C4.69556 17.3114 4.98544 17.5993 5.33991 17.5993H16.6289C16.9836 17.5993 17.2737 17.3114 17.2737 16.9587V10.1503H15.8466C15.9814 10.5886 16.0545 11.0527 16.0545 11.5331Z" fill="#8391B2"/>
<path d="M14.7039 8.31295H16.5361C16.9376 8.31295 17.2658 7.9867 17.2658 7.58751V5.85066C17.2658 5.45125 16.9376 5.125 16.5361 5.125H14.7039C14.3021 5.125 13.974 5.45125 13.974 5.85066V7.58751C13.9738 7.98648 14.3021 8.31295 14.7039 8.31295Z" fill="#8391B2"/>
<path d="M11 0.456665C4.92485 0.456665 0 5.35305 0 11.3931C0 17.4331 4.92485 22.3295 11 22.3295C17.0752 22.3295 22 17.4331 22 11.3931C22 5.35305 17.0752 0.456665 11 0.456665ZM17.025 19.4521H4.97526C3.83036 19.4521 2.89432 18.6097 2.89432 17.3837V5.40295C2.89432 4.1765 3.83036 3.33426 4.97526 3.33426H17.025C18.1696 3.33426 19.1059 4.1765 19.1059 5.40295V17.3837C19.1059 18.6097 18.1694 19.4521 17.025 19.4521Z" fill="#8391B2"/>
</svg>
