<svg width="82" height="18" viewBox="0 0 82 18" fill="none" xmlns="http://www.w3.org/2000/svg">
<mask id="mask0" mask-type="alpha" maskUnits="userSpaceOnUse" x="0" y="0" width="82" height="18">
<path d="M0 0H82V18H0V0Z" fill="white"/>
</mask>
<g mask="url(#mask0)">
<path fill-rule="evenodd" clip-rule="evenodd" d="M78.7566 17.761H82V0H78.7566V17.761Z" fill="#404042"/>
<path fill-rule="evenodd" clip-rule="evenodd" d="M22.4331 9.5148H17.6385C17.7628 8.36197 18.0035 7.14559 20.0049 7.14559C22.3209 7.14559 22.3749 8.28832 22.4271 9.3933C22.4291 9.43402 22.4309 9.47475 22.4331 9.5148ZM20.1178 4.36377H19.9597C18.6421 4.36377 16.8225 4.65362 15.639 6.03351C14.6171 7.20194 14.0312 8.95043 14.0312 10.8313V11.3116C14.0312 11.625 14.0729 13.2706 14.8988 14.8616C15.756 16.5134 17.1702 17.4972 18.9883 17.7067C19.3009 17.7429 19.6376 17.7612 19.9885 17.7612C22.1691 17.7612 24.3158 17.0772 24.4061 17.0479L24.5565 16.9993V14.4736C24.5565 14.4736 21.726 14.8015 20.7913 14.8323C17.9348 14.9275 17.5989 13.431 17.5644 12.2537H25.579V9.9981C25.579 8.14335 25.1185 6.76958 24.173 5.79911C23.0345 4.61263 21.3395 4.36377 20.1178 4.36377Z" fill="#404042"/>
<path fill-rule="evenodd" clip-rule="evenodd" d="M41.1326 9.53145H36.3382C36.4624 8.37862 36.7033 7.16218 38.7045 7.16218C41.0206 7.16218 41.0747 8.3049 41.1268 9.40987C41.1287 9.4506 41.1306 9.49132 41.1326 9.53145ZM38.8175 4.38025H38.6596C37.3418 4.38025 35.5224 4.6701 34.3387 6.04999C33.3168 7.21842 32.7307 8.96693 32.7307 10.8478V11.3281C32.7307 11.6415 32.7726 13.2871 33.5983 14.8781C34.4557 16.5299 35.8698 17.5137 37.6878 17.7231C38.0005 17.7593 38.3372 17.7777 38.6882 17.7777C40.8688 17.7777 43.0155 17.0936 43.1061 17.0643L43.2562 17.0158V14.4901C43.2562 14.4901 40.4257 14.8179 39.4908 14.8488C36.6345 14.9439 36.2987 13.4475 36.2639 12.2702H44.2787V10.0146C44.2787 8.15978 43.8183 6.78607 42.8729 5.81559C41.7342 4.62911 40.039 4.38025 38.8175 4.38025Z" fill="#404042"/>
<path fill-rule="evenodd" clip-rule="evenodd" d="M73.4734 9.53145H68.6786C68.8027 8.37862 69.0437 7.16218 71.0449 7.16218C73.3607 7.16218 73.4149 8.3049 73.4676 9.40987C73.469 9.4506 73.4712 9.49132 73.4734 9.53145ZM71.158 4.38025H71C69.6823 4.38025 67.8629 4.6701 66.6793 6.04999C65.6574 7.21842 65.0713 8.96693 65.0713 10.8478V11.3281C65.0713 11.6415 65.1132 13.2871 65.9391 14.8781C66.7965 16.5299 68.2105 17.5137 70.0282 17.7231C70.341 17.7593 70.6777 17.7777 71.0286 17.7777C73.2092 17.7777 75.3558 17.0936 75.4466 17.0643L75.5966 17.0158V14.4901C75.5966 14.4901 72.7661 14.8179 71.8312 14.8488C68.9751 14.9439 68.6391 13.4475 68.6045 12.2702H76.6195V10.0146C76.6195 8.15978 76.1589 6.78607 75.213 5.81559C74.0745 4.62911 72.3794 4.38025 71.158 4.38025Z" fill="#404042"/>
<path fill-rule="evenodd" clip-rule="evenodd" d="M27.7166 17.7777H30.9602V0H27.7166V17.7777Z" fill="#404042"/>
<path fill-rule="evenodd" clip-rule="evenodd" d="M4.37615 9.92362C5.19564 10.2521 7.4303 11.1509 7.92105 11.363C8.25132 11.5055 8.49747 11.725 8.65298 12.016L8.71418 12.1305H12.2173L12.1878 11.8708C11.8683 9.04747 10.0737 8.34142 8.33794 7.65863C7.75544 7.42968 6.71645 7.04877 5.95775 6.77075C5.53724 6.61647 5.20499 6.49476 5.11856 6.46046C4.11499 6.06007 3.29286 5.64013 3.39875 4.55129C3.48835 3.6291 4.20393 3.25046 5.86798 3.24418C7.54986 3.24801 10.9482 3.55352 10.9824 3.55656L11.2112 3.57742V0.714742L11.0518 0.670168C11.0286 0.663894 7.81621 0.013444 5.82407 0.000239004L5.74179 0C4.29409 0 3.09329 0.267386 2.17228 0.794865C0.730728 1.62039 0 3.0497 0 5.04227C0 7.23346 1.3087 8.69317 4.37615 9.92362Z" fill="#C02C25"/>
<path fill-rule="evenodd" clip-rule="evenodd" d="M8.68818 13.6765C8.29993 14.5479 7.21661 14.6306 6.12483 14.6306H5.99355C4.2513 14.6306 0.505586 14.2181 0.468054 14.2138L0.234863 14.1881V17.2373L0.394948 17.2802C0.421741 17.2876 3.54563 17.9998 5.8305 17.9998C9.6765 17.9998 11.8708 16.5058 12.1934 13.6765H8.68818Z" fill="#404042"/>
<path fill-rule="evenodd" clip-rule="evenodd" d="M60.8548 7.31514H63.7389V4.49435H60.8548V0H57.5679V12.1445H60.8548V7.31514Z" fill="#C02C25"/>
<path fill-rule="evenodd" clip-rule="evenodd" d="M62.3697 14.7962C61.3476 14.7962 60.9008 14.4719 60.8588 13.6868H57.5691C57.5967 16.4407 59.3396 17.5841 60.9727 17.7334C61.0914 17.7443 61.2236 17.7496 61.3656 17.7496C62.3693 17.7496 63.8446 17.4353 63.8446 17.4353V14.6994C63.8446 14.6994 62.6668 14.7962 62.3697 14.7962Z" fill="#404042"/>
<path fill-rule="evenodd" clip-rule="evenodd" d="M52.2241 4.44031C51.691 4.44031 51.2037 4.46792 50.7759 4.52223C49.0075 4.74623 47.6466 5.76953 46.8408 7.4805C46.1065 9.0408 46.0493 10.6477 46.0493 11.103C46.0493 11.5559 46.1065 13.1542 46.8427 14.7109C47.6485 16.414 49.0079 17.442 50.7739 17.6841C51.1476 17.7352 51.5909 17.7611 52.0918 17.7611C53.6233 17.7611 55.2417 17.5177 55.2575 17.5152L55.4391 17.4876V14.652C55.4391 14.652 53.6657 14.7797 52.7744 14.7797C51.6673 14.7797 51.1895 14.7044 50.9834 14.641C49.7356 14.2573 49.6102 12.2458 49.6145 11.3996C49.6152 11.2984 49.6152 10.9076 49.6145 10.8075C49.6102 9.94057 49.7344 7.88933 50.975 7.56765C51.3376 7.47369 51.9794 7.42403 52.8301 7.42403C53.7183 7.42403 55.4391 7.55415 55.4391 7.55415V4.7053L55.2592 4.67627C55.2448 4.67411 53.7734 4.44031 52.2241 4.44031Z" fill="#404042"/>
</g>
</svg>
